<svg xmlns="http://www.w3.org/2000/svg" xmlns:xlink="http://www.w3.org/1999/xlink" viewBox="0 0 256 256"><defs><style>.a{fill:#010417;}.b{fill:#3b3d4e;}.c{fill:#181b2b;}.d{fill:#e9edee;}.e{fill:#afb2ba;}.f{fill:#b4d46b;}.g{fill:#2476ed;}.h{fill:#f29031;}.i{fill:#55d1fb;}.j{fill:#fbc25c;}.k{fill:#f44545;}.l{fill:#0c3f09;}.m{fill:#7a18c4;}.n{fill:#5596fb;}.o{fill:#58a116;}.p{fill:#5a0e94;}.q{fill:#44077c;}.r{fill:#0c0f21;}.s{fill:#ac324d;}.t{fill:#da79f2;}.u{fill:#971954;}.v{fill:#bc463f;}.w{fill:#b729ef;}.x{fill:#4d0789;}.y{fill:#070719;}.z{fill:#130d0b;}.aa{fill:#e9edef;}.ab{fill:#b70d1d;}.ac{fill:#e4e8eb;}.ad{fill:url(#a);}.ae{fill:url(#b);}.af{fill:url(#c);}.ag{fill:url(#d);}.ah{fill:url(#e);}</style><linearGradient id="a" x1="76.87" y1="184.97" x2="70.5" y2="164.88" gradientUnits="userSpaceOnUse"><stop offset="0" stop-color="gray"/><stop offset="0.12" stop-color="#818282"/><stop offset="0.16" stop-color="#878889"/><stop offset="0.19" stop-color="#909294"/><stop offset="0.2" stop-color="#939598"/><stop offset="0.24" stop-color="#a9abad"/><stop offset="0.29" stop-color="#babbbd"/><stop offset="0.34" stop-color="#c4c5c7"/><stop offset="0.4" stop-color="#c7c8ca"/><stop offset="0.43" stop-color="#c7c8ca"/><stop offset="0.6" stop-color="#c7c8ca"/><stop offset="0.62" stop-color="#cfd0d2"/><stop offset="0.65" stop-color="#dcdddf"/><stop offset="0.7" stop-color="#e4e5e6"/><stop offset="0.8" stop-color="#e6e7e8"/><stop offset="0.8" stop-color="#e6e7e8"/><stop offset="1" stop-color="#e6e6e6"/></linearGradient><linearGradient id="b" x1="103.97" y1="182.13" x2="98.95" y2="154.68" xlink:href="#a"/><linearGradient id="c" x1="131.68" y1="178.73" x2="131.5" y2="152.08" xlink:href="#a"/><linearGradient id="d" x1="154.65" y1="181.18" x2="158.35" y2="156.29" xlink:href="#a"/><linearGradient id="e" x1="177.07" y1="186.21" x2="185.06" y2="163.57" xlink:href="#a"/></defs><rect class="a" x="-0.5" y="-0.5" width="257" height="257"/><path class="b" d="M120,28.74c0,1.7-.86,3.95,2.5,3.79.12,0,.26.35.4.54-.32.16-.65.48-.95.46-1.74-.11-1.87.67-1.33,1.9l-2.44-.09-1-1.29,0,0-.59-.55h0l-1.79-2.45C117,31.32,118.89,30.78,120,28.74Z"/><path class="c" d="M172.39,34.61l-2.78-3.82L173,29.5l2.44,3.9Z"/><path class="d" d="M159.58,89.35c-4.27-8.27-11.09-13.68-20.71-15.93,0-9.65.21-19.31-.19-28.95-.12-3.11-1.87-6.17-2.9-9.25-.21-.63-.53-1.24-.8-1.86a10.1,10.1,0,0,1,2.39,0c9.84,2.38,19.67,4.76,29.49,7.23,4.15,1,6,4.09,4.91,8q-3.69,13.08-7.52,26.13C162.79,79.58,161.14,84.45,159.58,89.35Zm.17-36.41c.12.13.24.24.36.36-.86,1.09-3.18,2.31.56,2.77,1.6.2,2.2.42,1.14-1.24-.21-.33-.1-.84-.14-1.27a13.3,13.3,0,0,1,1.41.38c1.92.72,3.94.53,4.74-1.15.61-1.29.09-3.07,0-4.62-.06-.77-.51-1.53-.5-2.3a3.75,3.75,0,0,0-2.91-4.06c-2.16-.63-3.66.29-4.76,2-.41.62-.77,1.53-1.38,1.74-2.2.75-3.35,2.06-3,4.21C155.59,52.1,157.44,52.86,159.75,52.94Z"/><path class="e" d="M172.39,34.61l3.09-1.21c2.42.68,5.06,1,7.22,2.09,9.81,5.06,19.51,10.31,29.21,15.56,5.94,3.21,7.28,8,3.86,13.48C206.93,78.77,198,93,189.23,107.26c-.94,1.52-1.66,2.14-3.71,1.38a38.3,38.3,0,0,0-19.09-1.56c-2.62.38-2.86-.65-2.61-2.5.11-.78.2-1.57.29-2.36h-.06l.57-1.11c.75-2.67,1.51-5.33,2.26-8,4.2-14.31,8.46-28.6,12.58-42.93C181.34,43.68,179,38.77,172.39,34.61Zm11.12,12c-.2.92-.31,1.53-.48,2.12-2.17,7.7-4.31,15.41-6.52,23.09-2.77,9.64-5.63,19.26-8.39,28.9-.88,3-.78,2.92,2.54,3.09a94.12,94.12,0,0,1,12.7,1.18c2.57.48,3.72-.07,4.94-2.06,7.91-12.92,15.92-25.78,23.92-38.65,3.55-5.71,2.92-8.1-3.11-11.35Q196.29,46,183.42,39.13a12.18,12.18,0,0,0-1.82-.62c.12.65.23,1.3.38,1.94C182.5,42.59,183,44.73,183.51,46.62Z"/><path class="e" d="M79.26,43.06c4.39.13,7.28,1.5,9.11,4.4C95,58,101.45,68.5,108.05,79c.74,1.19.56,1.77-.54,2.6a48.74,48.74,0,0,0-18,26.19c-.49,1.68-1.1,2-2.92,1.37a42.91,42.91,0,0,0-23-1.39,2.92,2.92,0,0,1-2.39-1Q50.68,90.08,40.33,73.25c-2.68-4.37-1.24-9.47,3.43-12,10.5-5.74,21.07-11.35,31.67-16.94A18.87,18.87,0,0,1,79.26,43.06ZM80.18,46a15.19,15.19,0,0,0-3.23.87c-10.43,5.52-20.86,11-31.2,16.7-3.71,2-4.63,5.1-2.6,8.42q9.59,15.7,19.49,31.25a3.3,3.3,0,0,0,2.66,1.09,44.21,44.21,0,0,1,18.64,1c2.3.61,3.06,0,3.78-2A52.46,52.46,0,0,1,103.21,81c1.23-1.06,1.42-1.78.58-3.11q-9-14.31-17.94-28.68A6.43,6.43,0,0,0,80.18,46Z"/><path class="e" d="M159.58,89.35c1.56-4.9,3.21-9.77,4.67-14.7q3.85-13,7.52-26.13c1.09-3.88-.76-6.93-4.91-8-9.82-2.47-19.65-4.85-29.49-7.23a10.1,10.1,0,0,0-2.39,0c.27.62.59,1.23.8,1.86,1,3.08,2.78,6.14,2.9,9.25.4,9.64.17,19.3.19,29-2.59.25-3.37-.76-3.32-3.21.18-8.32.09-16.65.07-25,0-6.77-3-10.93-9.76-13.53-.43-.16-.86-.35-1.29-.53.39-.36.73-1,1.18-1.05,2.27-.42,4.75-1.4,6.83-.93,12,2.72,23.95,5.71,35.86,8.79,5.2,1.34,7.88,5.93,6.48,10.85-4.14,14.63-8.4,29.23-12.63,43.84a5.89,5.89,0,0,1-.58,1.11,7.13,7.13,0,0,1-.65-1C160.55,91.65,160.07,90.5,159.58,89.35Z"/><path class="e" d="M118.16,35.34l2.44.09c6.86.35,10.28,3.62,10.3,9.89,0,8.5,0,17,.06,25.51,0,1.49-.35,2-2.07,2.35a119.19,119.19,0,0,0-13.82,3.95c-1.9.68-2.52.41-3.45-1.1-6.08-9.9-12.33-19.72-18.39-29.64-3.11-5.08-7.55-7.81-13.92-7.64a8.39,8.39,0,0,1-1.3-.16c.31-.4.53-1,.93-1.16,2.29-.73,4.6-1.84,6.93-1.9,9.61-.24,19.23-.15,28.85-.18l2.5-.14Zm-11.33,3c-4.67,0-9.33,0-14,0a13.84,13.84,0,0,0-2.11.34c.45.53.91,1.06,1.34,1.6A68.59,68.59,0,0,1,96.59,46q8.34,13.14,16.46,26.4c.86,1.39,1.55,1.57,3.13,1a78.72,78.72,0,0,1,8.95-2.67c2-.47,2.84-1.38,2.82-3.31-.06-7.53,0-15.07,0-22.6,0-3.9-3.09-6.49-7.35-6.51C116,38.3,111.41,38.32,106.83,38.32Z"/><path class="f" d="M146.9,90.45h0m0,0c3.29,3.16,5.38,6.8,5.37,11.33,0,1,.16,2,.25,3.06C154.71,106,154.8,108,155,110c4.47.46,4.48.46,4-3.61-.16-1.47.59-3.29-1.65-4.07a12.07,12.07,0,0,1,.37-1.25c.12-.36.24-.72.35-1.07-.83-2.15-1.6-4.34-2.52-6.46-8.94-20.48-29.77-18.22-42-9h.07l-1.07.65-.08-.12-.14,0-1.54,1.08-1.13,1.14L108,88.39h0l-.58.55,0,.54c.71,2.4,2.78,2.89,5,3.09,1.07-.87,2.1-1.78,3.21-2.6,6.64-4.9,14-7.37,22.15-4,3.13,1.3,5.56,4.07,8.31,6.18l.76-1.74,0,0"/><path class="g" d="M75.86,121.09c6,.4,11.15,2.89,16.25,5.53,1.32.68,2.54,1.51,3.81,2.27.85.81,1.75,1.58,2.55,2.43,3,3.22,6.08,6.47,9.12,9.7.66,1.28,2,2.71-.23,3.71-3,1.33-6.06.68-6.83-1.43a33.8,33.8,0,0,0-9.34-13.44,39,39,0,0,0-12.94-7.52A21.71,21.71,0,0,1,75.86,121.09Z"/><path class="h" d="M196.84,121.87c1.15.92,1.3,1.67-.41,2.11-.72.18-1.43.39-2.15.59-1.19-.68-2.4-1.34-3.58-2A23.35,23.35,0,0,0,176,119.15a57.82,57.82,0,0,0-5.77,1.19c-1.74.53-2.8.57-3-1.5a11.4,11.4,0,0,0-1-2.72c2.18-.38,4.4-1.23,6.51-1.05,4.53.4,9,1.33,13.51,2l.41.33.18-.26-.54-.13-.66-1.37a4.22,4.22,0,0,1,1.32.17c2.85,1.44,5.67,2.93,8.5,4.4h0l.66,1.06-.09,0Z"/><path class="i" d="M98.11,123.36c-4.77-4.38-10.09-8-16.6-9.77-.91-.25-1.81-.53-2.74-.69a3.82,3.82,0,0,0-1.22.19,6.27,6.27,0,0,0,.84.62c.33.17.73.2,1.07.36a8.83,8.83,0,0,1,.91.59,11,11,0,0,1-1.28,0,83.93,83.93,0,0,0-9.57-.77c-6.84.22-12.28,3.29-16.66,8a7.34,7.34,0,0,0-1,2.12c-2.3,0-3.21-.55-1.54-2.73,4.76-6.2,11-10.13,19.28-10.35,10.65-.29,20.11,2.58,27.29,10.38A11.12,11.12,0,0,1,98.11,123.36Zm-22-10.78c-.17-.07-.31-.19-.46-.19a1.39,1.39,0,0,0-.43.2,1.28,1.28,0,0,0,.44.19A1.18,1.18,0,0,0,76.09,112.58Z"/><path class="j" d="M186.32,117.11c-4.5-.71-9-1.64-13.51-2-2.11-.18-4.33.67-6.51,1.05l-1-1.2c-.84-1-1.68-2-2.53-3,1.28-.18,2.56-.39,3.84-.53,10.61-1.23,20.57-.43,28.17,7.76a8.88,8.88,0,0,1,.76,1.09c-2.83-1.47-5.65-3-8.5-4.4a4.22,4.22,0,0,0-1.32-.17l.66,1.37Z"/><path class="k" d="M148.19,131.35c-1.53-.67-2.33-.47-2.82.9-.93,2.6-2,5.17-2.64,7.82-1.43,5.68-2.5,4.82,5.06,5.77,1.3.27,1.94-.39,2.1-2,.23-2.28.35-4.7,1.27-6.76C152.62,133.82,151,132.57,148.19,131.35Z"/><path class="g" d="M82.84,136.63c-2.25-5-5.19-9.61-9.77-13.14a4.27,4.27,0,0,0-.54-.18l-.47-.39-.12-.11-.47-.44-3.57-2.74a7.31,7.31,0,0,0-2.69-.13c-4,1.44-8,3-11.94,4.58,0,.18.06.35.08.52,1.22,1.8,3.09,1.66,5,1.46l4.43-.44c2,.57,4,1,5.91,1.75a12.75,12.75,0,0,1,2.61,1.79,26,26,0,0,0-2.77-.22,8.35,8.35,0,0,0-1.8.41c.21.34.33.77.64,1a34.44,34.44,0,0,1,11.71,16.29c.26.73,1.48,1.17,2.26,1.74.25-.85.85-1.75.71-2.53a65.59,65.59,0,0,0-1.74-6.68c-.38-1.24-.38-2,1.35-1.42C82.89,138.17,83.46,138,82.84,136.63Z"/><path class="l" d="M162.28,119.75c1.48,2.7.29,5-1.55,7a7.67,7.67,0,0,1-7.84,1.85,6.71,6.71,0,0,1-5.39-5.84,12.18,12.18,0,0,1,.59-3.51,2.74,2.74,0,0,1,.5-.08c1.09,1.17,2,2.75,3.34,3.43C156.19,124.66,159.41,122.59,162.28,119.75Z"/><path class="j" d="M194.55,134.53c.65-3.45,3.19-5.44,6.88-5.37s6,2.09,6.54,5.4c-.17.18-.35.35-.53.53h0a37.89,37.89,0,0,1-4.34,2.13C199.5,138.46,197.12,136.18,194.55,134.53Z"/><polygon class="m" points="96.5 113.39 96.49 113.38 96.49 113.38 96.5 113.39"/><path class="l" d="M152.08,110.41c0,2.19-.64,4.18-3,4.92a5.65,5.65,0,0,1-6-1.35,4.85,4.85,0,0,1-.72-1.79c0-.07.09-.17.09-.25-.11-1.28-.8-2.94-.19-3.74s2.57-.38,3.84-.78c.6-.18,1-1,1.43-1.53Z"/><path class="n" d="M38.45,134.7c.12-.25.23-.49.35-.73l.5-1,0,0a45.54,45.54,0,0,1,4.31-2.68c2.84-1.38,4.87.87,7.24,1.61l0,0,.54,2.11a7.24,7.24,0,0,1-10.64,2.17C40,135.69,39.19,135.2,38.45,134.7Z"/><path class="g" d="M38.45,134.7c.74.5,1.5,1,2.22,1.52a7.24,7.24,0,0,0,10.64-2.17l.23-.07.23,0c1.7,2.75-.05,4.71-1.9,6.51-2,2-5.38,2.2-8.18.81S37.91,137.79,38.45,134.7Z"/><path class="h" d="M135.4,144.73c-2.54.55-3.11-.22-2.5-2.6,1.61-6.19,3.72-12.17,7.44-17.57a14.43,14.43,0,0,1,2-2c.23.82.47,1.63.68,2.46.09.34.14.69.2,1-.77.73-1.92,1.33-2.24,2.19C139,133.73,137.24,139.24,135.4,144.73Z"/><path class="k" d="M135.4,144.73c1.84-5.49,3.62-11,5.59-16.46.32-.86,1.47-1.46,2.24-2.19.15,1,.7,2.2.4,3.11-1.52,4.59-3.35,9.09-4.88,13.68C138.17,144.64,137.44,145.54,135.4,144.73Z"/><path class="o" d="M162.28,119.75c-2.87,2.84-6.09,4.91-10.35,2.8-1.38-.68-2.25-2.26-3.34-3.43a2.73,2.73,0,0,1-.05-.5l0,0,13.27,0Z"/><path class="n" d="M51.89,124.06s0,0,0,0h-.06Z"/><path class="n" d="M107.27,139l-.41-.6a25,25,0,0,0-1.1-2.67c-1.66-3-3.38-6.06-5.08-9.08l-2.57-3.25c-4.77-4.38-10.09-8-16.6-9.77-.91-.25-1.81-.53-2.74-.69a3.82,3.82,0,0,0-1.22.19,6.27,6.27,0,0,0,.84.62c.33.17.73.2,1.07.36a8.83,8.83,0,0,1,.91.59,11,11,0,0,1-1.28,0,83.93,83.93,0,0,0-9.57-.77c-6.84.22-12.28,3.29-16.66,8a6.89,6.89,0,0,0-1,2.07l1.36.07c4-1.54,7.93-3.14,11.94-4.58a7.31,7.31,0,0,1,2.69.13l8,1.46c6,.4,11.15,2.89,16.25,5.53,1.32.68,2.54,1.51,3.81,2.28h0c.85.81,1.75,1.58,2.55,2.43,3,3.22,6.08,6.47,9.12,9.7Z"/><path class="k" d="M208.22,135.13c.34,3.93-2.36,6.9-6.45,7.1-4.4.2-7.3-2.34-7.46-6.54.87,1.52,2.19,2.19,4,2.84,2.7,1,4.89-.21,7.28-.44,1.68-.16,2.18-1.48,1.83-3h0Z"/><path class="k" d="M194.28,124.57c-1.19-.68-2.4-1.34-3.58-2A23.35,23.35,0,0,0,176,119.15c.12.31.44.82.34.9-1,.86-2.09,1.66-3.16,2.47-.25.29-.51.57-.76.85l0,0-.59.57,0,0-.59.58,0,0-.57.58v0q-2.31,3.66-4.63,7.32c-.17.43-.35.85-.53,1.27a.21.21,0,0,0-.06.29c-.58,2-1.18,4-1.74,6a2.36,2.36,0,0,0,.06.74,5.51,5.51,0,0,0,.85-.52c.34-.3.6-.69.94-1s.84-.64,1.27-1a9.9,9.9,0,0,1-.11,1.64c-.55,2.39-1.21,4.77-1.65,7.19-.08.42.7,1,1.09,1.48.51-.41,1.3-.73,1.47-1.24.93-2.75,1.7-5.55,2.53-8.33a.35.35,0,0,0,.1-.33l.51-.74q3.38-3.78,6.77-7.55c.4-.44.85-.85,1.28-1.28-.72,0-1.43-.12-2.14-.11-.88,0-1.76.12-2.63.18l1.87-1.83h0c3.7-.66,7.38-1.37,11.1-1.94C189.52,125,191.91,124.81,194.28,124.57Z"/><path class="f" d="M161.79,118.62l-13.27,0c.09-.3.17-.6.26-.9l.46-.58C154,113.27,159.25,113.88,161.79,118.62Z"/><path class="h" d="M207.4,135.1c.35,1.51-.15,2.83-1.83,3-2.39.23-4.58,1.44-7.28.44-1.79-.65-3.11-1.32-4-2.84l.24-1.16c2.57,1.65,4.95,3.93,8.51,2.7A37.89,37.89,0,0,0,207.4,135.1Z"/><path class="i" d="M50.82,132c-2.37-.74-4.4-3-7.24-1.61A45.54,45.54,0,0,0,39.27,133c.49-2.45,2.51-3.34,4.76-3.7C46.8,128.9,49.23,129.59,50.82,132Z"/><path class="b" d="M117.22,35.21l-2.5.14c-.62-1.68.3-2,1.84-1.82h0l.59.55,0,0Z"/><path class="l" d="M114.16,141.53c0-.52-.1-1.05-.14-1.58l-.27-.63q-1.34-4.59-2.69-9.18a8.85,8.85,0,0,0,0,1c.11,1.21.24,2.43.37,3.64-.65-.89-1.29-1.79-2-2.67-.1-.12-.32-.17-.48-.26l3.17,8.08c.11.21.23.42.35.63s.32.71.47,1.06l1.3,2.77C114.23,143.46,114.19,142.5,114.16,141.53Z"/><path class="l" d="M152,104.91c-.36-.56-.71-1.12-1.06-1.68s-.68-1-1.06-1.53c.38.49.7,1,1.06,1.53-1.11-2.84-2.17-5.7-3.33-8.53a20.62,20.62,0,0,0-1.45-2.53c-2.75-2.11-5.18-4.88-8.31-6.18-8.15-3.4-15.51-.93-22.15,4-1.11.82-2.14,1.73-3.21,2.6-2.39,3.07-4.88,6.07-7.1,9.23-.87,1.25-1.12,2.87-1.66,4.32,2.08-2.69,4-5.49,6.28-8,4.46-5,10.41-8,16.91-10.17l1.1-.16,1.91-.22.79.33-1.07.93-1,.66,0,0-2.93,2.57h0L124,93.69h0c-4.67,4-6.88,9.21-8,14.88-.21,1.23-.41,2.46-.61,3.7l-.24,1.1,0,2.64c.1,2.54.07,5.1.33,7.63.67,6.39,1.52,12.76,2.2,19.15.16,1.5.88,2,2.37,1.89,1-.06,1.9-.05,2.85,0,1.94.06,2.71-.87,2.79-2.58a47,47,0,0,1,.49-4.74c.58-4.09,1.21-8.19,1.82-12.28l.12-1c-1.15-1.59-.43-2.75,1-3.74.45-2.41.91-4.82,1.36-7.23h0c.23-.86.45-1.72.68-2.58l-2.15.66c-2,1.14-4,2.29-6,3.41a14.31,14.31,0,0,1-1.44.64c-.14-.48-.46-1-.38-1.44.31-1.73.75-3.44,1.15-5.16.35-.63.7-1.26,1.06-1.88,3.7-6.46,8.85-11,17.22-11.41l.91.09c1.51-.09,3.12-.39,3.61,1.56v0l.6.61.48.47h0a11,11,0,0,1,.56,1.21c.22.64.38,1.31.57,2-.69-.08-1.39-.13-2.07-.25-1.39-.24-2.77-.58-4.16-.75a9.28,9.28,0,0,0-2.08.2,16.27,16.27,0,0,1,1.66.86c2.32,1.54,4.62,3.12,6.93,4.68l4.51,4.52,1.09-.27C152.77,108.4,152.36,106.65,152,104.91Z"/><path class="l" d="M128,124l1-3.74C127.6,121.26,126.88,122.42,128,124Z"/><path class="a" d="M129.64,88.77l0,0h0Z"/><path class="p" d="M111,129.82l-1.14-3.31Z"/><path class="q" d="M126.79,150.51c0-.67,0-1.33,0-2C126.82,149.18,126.81,149.84,126.79,150.51Z"/><path class="b" d="M112.67,32.51c.26-.22.43-.49.63-.51s.47.16.71.26a3.33,3.33,0,0,1-.61.68C113.31,33,113,32.71,112.67,32.51Z"/><path class="f" d="M51.77,134l-.23,0-.23.07-.54-2.11C51.1,132.63,51.43,133.32,51.77,134Z"/><path class="c" d="M109.7,87.32,108,88.39Z"/><path class="c" d="M112.37,85.1l-1.54,1.08Z"/><path class="f" d="M53.27,124.08c0,.18.06.35.08.52l-1.5-.6Z"/><path class="r" d="M175.78,189.93l-.32.31a2.18,2.18,0,0,1-.26-.36s.14-.18.16-.17A2.41,2.41,0,0,1,175.78,189.93Z"/><path class="q" d="M115.33,112.27l-.24,1.1Z"/><path class="a" d="M130.68,87.85l-.79-.33-.3,1.29Z"/><path class="p" d="M109.2,125c-.23-.51-.47-1-.7-1.52C108.73,124,109,124.53,109.2,125Z"/><path class="j" d="M196.17,121.3l-.66-1.06Z"/><path class="f" d="M39.3,133l-.5,1Z"/><path class="b" d="M157.72,101.1c.12-.36.24-.72.35-1.07C158,100.38,157.84,100.74,157.72,101.1Z"/><path class="s" d="M173.22,122.52c-.25.29-.51.57-.76.85C172.71,123.09,173,122.81,173.22,122.52Z"/><path class="p" d="M129.64,88.77l-1,.67Z"/><path class="p" d="M126.88,87.9l1.1-.16Z"/><path class="t" d="M113.66,84.52l-1.07.65Z"/><path class="u" d="M166.19,132.31c-.17.43-.35.85-.53,1.27C165.84,133.16,166,132.74,166.19,132.31Z"/><path class="p" d="M105.37,125.51l.68.88Z"/><path class="l" d="M107.27,139l-.41-.6Z"/><path class="u" d="M170.41,138.58l.51-.74Z"/><path class="v" d="M208.22,135.13l-.78,0c.18-.18.36-.35.53-.53Z"/><path class="p" d="M107.94,129.86l.45.71Z"/><path class="p" d="M106.19,126.68l.45.73Z"/><path class="c" d="M108,88.38l-.58.55Z"/><path class="c" d="M103.37,93.15l-.5.58Z"/><path class="p" d="M107.65,121.89l-.27-.53Z"/><path class="j" d="M196.84,121.87l-.76-.59Z"/><path class="l" d="M71.94,122.81l-.47-.44Z"/><path class="p" d="M108.29,123l-.33-.54Z"/><path class="w" d="M148.54,118.62a2.73,2.73,0,0,0,.05.5,2.74,2.74,0,0,0-.5.08Z"/><path class="c" d="M102.15,94.73l-.45.54Z"/><path class="l" d="M72.53,123.31l-.47-.39Z"/><path class="q" d="M126.64,148.07l-.42-.57Z"/><path class="p" d="M145.08,96.9l.6.61Z"/><path class="q" d="M121.18,146.47l-.49.51Z"/><path class="q" d="M112.14,140c.11.21.23.42.35.63C112.37,140.38,112.25,140.17,112.14,140Z"/><path class="q" d="M114,140l-.27-.63Z"/><path class="s" d="M172.5,123.34l-.59.57Z"/><path class="s" d="M171.94,123.88l-.59.58Z"/><path class="s" d="M171.39,124.43l-.58.59Z"/><path class="x" d="M149.24,117.16l-.46.58Z"/><path class="y" d="M117.22,35.21l-.11-1.16,1,1.29Z"/><path class="y" d="M117.13,34.07l-.59-.55Z"/><path class="z" d="M159.75,52.94c-2.31-.08-4.16-.84-4.52-3.2-.34-2.15.81-3.46,3-4.21.61-.21,1-1.12,1.38-1.74,1.1-1.69,2.6-2.61,4.76-2a3.75,3.75,0,0,1,2.91,4.06c0,.77.44,1.53.5,2.3.12,1.55.64,3.33,0,4.62-.8,1.68-2.82,1.87-4.74,1.15a13.3,13.3,0,0,0-1.41-.38c0,.43-.07.94.14,1.27,1.06,1.66.46,1.44-1.14,1.24-3.74-.46-1.42-1.68-.56-2.77l.29-.45Z"/><path class="d" d="M183.51,46.62c-.47-1.89-1-4-1.53-6.17-.15-.64-.26-1.29-.38-1.94a12.18,12.18,0,0,1,1.82.62Q196.28,46,209.11,52.94c6,3.25,6.66,5.64,3.11,11.35-8,12.87-16,25.73-23.92,38.65-1.22,2-2.37,2.54-4.94,2.06a94.12,94.12,0,0,0-12.7-1.18c-3.32-.17-3.42,0-2.54-3.09,2.76-9.64,5.62-19.26,8.39-28.9,2.21-7.68,4.35-15.39,6.52-23.09C183.2,48.15,183.31,47.54,183.51,46.62Zm17.82,18.16-2.48,1c.79.48,1.6.93,2.35,1.45,1.63,1.12,2,.58,1.64-1a8.75,8.75,0,0,1,0-1.84,5.06,5.06,0,0,0,1.05.82c1.2.51,2.9,1.63,3.56,1.24,1.25-.73,2.67-2.34,2.66-3.57,0-2.6-.92-5.2-1.48-7.79,0-.16-.41-.42-.51-.39-3.18,1.26-6.69,2.11-9.42,4-2.34,1.59-.95,4.45,2.11,5.22C201.08,64,201.17,64.47,201.33,64.78Z"/><path class="y" d="M164.05,102.23l.57-1.11Z"/><path class="aa" d="M80.18,46a6.43,6.43,0,0,1,5.67,3.21q8.94,14.36,17.94,28.68c.84,1.33.65,2-.58,3.11a52.46,52.46,0,0,0-15.49,22.3c-.72,2-1.48,2.65-3.78,2a44.21,44.21,0,0,0-18.64-1,3.3,3.3,0,0,1-2.66-1.09Q52.77,87.7,43.15,72c-2-3.32-1.11-6.39,2.6-8.42C56.09,57.91,66.52,52.4,77,46.88A15.19,15.19,0,0,1,80.18,46Zm-4.91,6-.88-.91c-1.1.65-2.79,1.11-3.14,2-.42,1.09-.18,3.15.64,3.74,1.78,1.28,4.1,1.94,6.24,2.76,1.21.47,2.49.77,3.75,1.15.27-1.18.64-2.35.8-3.54.3-2.14.83-4.34.53-6.42-.13-1-1.95-2.22-3.13-2.35-1-.11-2.18,1.19-3.21,2A14.12,14.12,0,0,0,75.27,52Z"/><path class="aa" d="M106.83,38.32c4.58,0,9.15,0,13.72,0,4.26,0,7.31,2.61,7.35,6.51.09,7.53,0,15.07,0,22.6,0,1.93-.82,2.84-2.82,3.31a78.72,78.72,0,0,0-8.95,2.67c-1.58.59-2.27.41-3.13-1Q104.92,59.17,96.59,46a68.59,68.59,0,0,0-4.53-5.76c-.43-.54-.89-1.07-1.34-1.6a13.84,13.84,0,0,1,2.11-.34C97.5,38.3,102.16,38.32,106.83,38.32Zm13,1.6c-.23.33-.42.64-.65.91-1.52,1.81-3.11,3.57-4.53,5.44A1.79,1.79,0,0,0,114.7,48c1.43,1.86,3,3.63,4.56,5.41a6.11,6.11,0,0,0,.84.66q2.93-3.69,5.84-7.4s-.09-.14-.15-.21c-1.7-2-3.4-4-5.12-6A4.28,4.28,0,0,0,119.81,39.92Z"/><path class="o" d="M152.52,104.84c-.09-1-.25-2-.25-3.06,0-4.53-2.09-8.18-5.39-11.35l-.76,1.74a20.62,20.62,0,0,1,1.45,2.53c1.16,2.83,2.22,5.69,3.33,8.53.35.56.7,1.12,1.06,1.68.4,1.74.81,3.49,1.21,5.23L155,110C154.8,108,154.71,106,152.52,104.84Z"/><path class="o" d="M111.06,130.14a.35.35,0,0,0-.1-.32l-1.14-3.31c-.21-.49-.42-1-.62-1.47s-.47-1-.7-1.52l-.21-.56-.33-.54-.31-.53-.27-.53a15.53,15.53,0,0,0-2-3.48c-3.45-3.46-4.25-7.19-1.85-11.43a.32.32,0,0,0,.18-.34c.54-1.45.79-3.07,1.66-4.32,2.22-3.16,4.71-6.16,7.1-9.23-2.27-.2-4.34-.69-5-3.09a1.75,1.75,0,0,0-.51,0l-3.49,3.66,0,0-.5.58-.72,1-.45.54h0l-5.12,9.09-.63,1h0c-.24.54-.48,1.07-.71,1.6a.19.19,0,0,0-.12.26h0c-2.06,3.18-2,3.41,1.39,6.18h0l.56.57h0l1.15,2,7.18,9.51.68.88a.38.38,0,0,0,.14.29l.45.73,1.3,2.45.45.71c.19.44.39.87.58,1.31.16.09.38.14.48.26.67.88,1.31,1.78,2,2.67-.13-1.21-.26-2.43-.37-3.64A8.85,8.85,0,0,1,111.06,130.14Z"/><path class="m" d="M95.93,105.36l.63-1Z"/><path class="m" d="M97.05,114l-.56-.57Z"/><path class="j" d="M186.37,117.05l.54.13-.18.26-.41-.33Z"/><path class="o" d="M76.09,112.58a1.18,1.18,0,0,1-.45.2,1.28,1.28,0,0,1-.44-.19,1.39,1.39,0,0,1,.43-.2C75.78,112.39,75.92,112.51,76.09,112.58Z"/><path class="e" d="M63.33,188.94l1.94.47-.24.4-1.68-.89Z"/><path class="d" d="M159.75,52.94l.65-.09-.29.45C160,53.18,159.87,53.07,159.75,52.94Z"/><path class="z" d="M201.33,64.78c-.16-.31-.25-.83-.47-.89-3.06-.77-4.45-3.63-2.11-5.22,2.73-1.85,6.24-2.7,9.42-4,.1,0,.47.23.51.39.56,2.59,1.46,5.19,1.48,7.79,0,1.23-1.41,2.84-2.66,3.57-.66.39-2.36-.73-3.56-1.24a5.06,5.06,0,0,1-1.05-.82Z"/><path class="c" d="M201.33,64.78l1.56-.38a8.75,8.75,0,0,0,0,1.84c.31,1.6,0,2.14-1.64,1-.75-.52-1.56-1-2.35-1.45Z"/><path class="ab" d="M75.27,52a14.12,14.12,0,0,1,1.6-1.59c1-.77,2.23-2.07,3.21-2,1.18.13,3,1.4,3.13,2.35.3,2.08-.23,4.28-.53,6.42-.16,1.19-.53,2.36-.8,3.54-1.26-.38-2.54-.68-3.75-1.15-2.14-.82-4.46-1.48-6.24-2.76-.82-.59-1.06-2.65-.64-3.74.35-.91,2-1.37,3.14-2Z"/><path class="ab" d="M119.81,39.92a4.28,4.28,0,0,1,.86.55c1.72,2,3.42,4,5.12,6,.06.07.16.19.15.21q-2.91,3.72-5.84,7.4a6.11,6.11,0,0,1-.84-.66c-1.55-1.78-3.13-3.55-4.56-5.41a1.79,1.79,0,0,1-.07-1.76c1.42-1.87,3-3.63,4.53-5.44C119.39,40.56,119.58,40.25,119.81,39.92Z"/><path class="ac" d="M217.76,44.13q-15.94-8.85-32.18-17.22a19,19,0,0,0-18.28.1,6.19,6.19,0,0,1-4.81.45C153.68,25.21,144.87,23,136,20.83c-7.19-1.74-13.53-.27-19,4.5a5.8,5.8,0,0,1-3.42,1.28c-9.44.1-18.88,0-28.31.08-8.2.07-14.11,3.64-17.78,10.47a4.87,4.87,0,0,1-1.63,2C56.74,44.13,47.55,49,38.38,53.84l-4.12,3.28c-5.9,7.28-6.06,14.68-1,22.48,5.82,8.94,11.28,18.08,17,27.09.79,1.26.75,1.84-.43,3-3.18,3.13-6,6.59-9,9.86a12.57,12.57,0,0,1-3.17,2.8c-6.14,3.2-9.64,9.65-8.41,15.88,1.42,7.18,7.82,12.31,15.58,12.49s14.43-4.51,16.3-11.62c.16-.59.4-1.16.6-1.74a6.56,6.56,0,0,1,1.79,1.15c1.82,2.36,3.62,4.75,5.19,7.25.35.54-.16,1.65-.46,2.43-.87,2.18-2.24,4.27-2.61,6.51a2.74,2.74,0,0,1-2.09,2.51c-1.86.78-3.72,1.58-5.57,2.38a17,17,0,0,1,5,2.95l7.5-2.92c1.23-.47,2.48-.4.85-2.09-2.51-2.62-1.25-6.08,2.32-7.54.56-.23,1.31-1.19,1.18-1.57-2.06-5.81-5-11.14-10.48-14.84a16.82,16.82,0,0,0-4-2,27,27,0,0,0-4.14-.76c.16,1.08.3,2.16.49,3.23,1,5.54-2.64,10.62-8.59,12.08-5.74,1.4-11.83-1.6-13.8-6.82A10.3,10.3,0,0,1,40.45,126a7.21,7.21,0,0,0,3.93-3.47,29,29,0,0,1,11.44-11.6c1.67-.91,1.44-1.58.66-2.83Q46.63,92.38,36.85,76.61c-4.92-7.92-2.8-15.33,5.68-19.87C51.27,52.05,60,47.4,68.73,42.63a6.56,6.56,0,0,0,2.6-2.85C73.8,34.48,78,31.19,84.18,31c10.19-.25,20.39,0,30.59,0,2.26.24,4.12-.3,5.21-2.34,4.36-4.11,9.52-5.14,15.44-3.64,8.61,2.19,17.27,4.21,25.84,6.49,3,.81,5.78,1.44,8.35-.8L173,29.5a14.73,14.73,0,0,1,10.74,1.37c10.48,5.61,21,11.15,31.42,16.84,7.24,3.94,9.25,11.73,4.94,18.69q-13.27,21.41-26.65,42.74c-1.08,1.72-1,2.43.59,4,3.3,3.11,6,6.8,8.95,10.21a8.61,8.61,0,0,0,2.71,2.37c6,2.6,8.75,8.74,6.25,14.22-2.4,5.25-9,7.88-14.78,5.87-6-2.11-9.1-8.16-6.72-13.92,1-2.38,0-2-1.69-1.68-8.87,1.5-16.57,9.86-16.67,18.29,0,.5.76,1.24,1.35,1.47,3.91,1.51,5.13,5.17,2.29,7.83-1.42,1.32-1,1.37.52,1.92q3.48,1.28,7,2.58a21.92,21.92,0,0,1,4-3.46l-3.76-1.47c-1.16-.44-1.87-.78-1.71-2.19.36-3.14-1-5.66-3.56-7.74a2,2,0,0,1-.62-1.91c1.61-2.76,3.37-5.45,5.19-8.1.36-.53,1.22-.76,1.86-1.12a18.42,18.42,0,0,1,.57,1.88,15.81,15.81,0,0,0,13.22,12.39c7.17,1.05,14-2.07,17.26-7.92s2.53-13.32-3-17.29c-4.48-3.25-7.42-7.38-10.82-11.3a9.64,9.64,0,0,0-1.94-1.94c-1.81-1.17-1.6-2.28-.57-3.92q12.49-19.83,24.78-39.76C229.69,59.53,227.06,49.29,217.76,44.13Z"/><path class="a" d="M220.14,66.4c4.31-7,2.3-14.75-4.94-18.69C204.77,42,194.26,36.48,183.78,30.87A14.73,14.73,0,0,0,173,29.5l2.44,3.9c2.42.68,5.06,1,7.22,2.09,9.81,5.06,19.51,10.31,29.21,15.56,5.94,3.21,7.28,8,3.86,13.48C206.93,78.77,198,93,189.23,107.26c-.94,1.52-1.66,2.14-3.71,1.38a38.3,38.3,0,0,0-19.09-1.56c-2.62.38-2.86-.65-2.61-2.5.11-.78.2-1.57.29-2.36h-.06l.57-1.11c.75-2.66,1.51-5.32,2.26-8,4.2-14.31,8.46-28.6,12.58-42.93,1.88-6.52-.47-11.43-7.07-15.59l-2.78-3.82c-2.57,2.24-5.33,1.61-8.35.8-8.57-2.28-17.23-4.3-25.84-6.49-5.92-1.5-11.08-.47-15.44,3.64,0,1.7-.86,3.95,2.5,3.79.12,0,.26.35.4.54-.32.16-.65.48-.95.46-1.74-.11-1.87.67-1.33,1.9,6.86.35,10.28,3.62,10.3,9.89,0,8.5,0,17,.06,25.51,0,1.49-.35,2-2.07,2.35a119.19,119.19,0,0,0-13.82,3.95c-1.9.68-2.52.41-3.45-1.1-6.08-9.9-12.33-19.72-18.39-29.64-3.11-5.08-7.55-7.81-13.92-7.64a8.39,8.39,0,0,1-1.3-.16c.31-.4.53-1,.93-1.16,2.29-.73,4.6-1.84,6.93-1.9,9.61-.24,19.23-.15,28.85-.18-.62-1.68.3-2,1.84-1.82-.6-.81-1.2-1.63-1.79-2.45-10.2,0-20.4-.29-30.59,0-6.17.15-10.38,3.44-12.85,8.74a6.56,6.56,0,0,1-2.6,2.85C60,47.4,51.27,52.05,42.53,56.74c-8.48,4.54-10.6,11.95-5.68,19.87q9.8,15.75,19.63,31.49c.78,1.25,1,1.92-.66,2.83a29,29,0,0,0-11.44,11.6A7.21,7.21,0,0,1,40.45,126a10.3,10.3,0,0,0-6.16,13.29c2,5.22,8.06,8.22,13.8,6.82,5.95-1.46,9.56-6.54,8.59-12.08-.19-1.07-.33-2.15-.49-3.23a27,27,0,0,1,4.14.76,16.82,16.82,0,0,1,4,2c5.49,3.7,8.42,9,10.48,14.84.13.38-.62,1.34-1.18,1.57-3.57,1.46-4.83,4.92-2.32,7.54,1.63,1.69.38,1.62-.85,2.09-2.86,1.1-5.71,2.22-8.57,3.33,6.38,5,10.83,14.79,11.28,26.17C85,183,105.33,179,128.5,179c18.46,0,35.14,2.56,47.13,6.67,1.21-9.56,4.9-17.67,9.94-22.51q-4.63-1.75-9.28-3.46c-1.49-.55-1.94-.6-.52-1.92,2.84-2.66,1.62-6.32-2.29-7.83-.59-.23-1.36-1-1.35-1.47.1-8.43,7.8-16.79,16.67-18.29,1.65-.28,2.68-.7,1.69,1.68-2.38,5.76.69,11.81,6.72,13.92,5.75,2,12.38-.62,14.78-5.87,2.5-5.48-.26-11.62-6.25-14.22a8.61,8.61,0,0,1-2.71-2.37c-3-3.41-5.65-7.1-8.95-10.21-1.63-1.55-1.67-2.26-.59-4Q206.92,87.83,220.14,66.4ZM113.3,32c.22,0,.47.16.71.26a3.33,3.33,0,0,1-.61.68c-.09.05-.41-.23-.73-.43C112.93,32.29,113.1,32,113.3,32Zm12.56-.3c-.43-.16-.86-.35-1.29-.53.39-.36.73-1,1.18-1.05,2.27-.42,4.75-1.4,6.83-.93,12,2.72,23.95,5.71,35.86,8.79,5.2,1.34,7.88,5.93,6.48,10.85-4.14,14.63-8.4,29.23-12.63,43.84a5.89,5.89,0,0,1-.58,1.11,7.13,7.13,0,0,1-.65-1c-.51-1.13-1-2.28-1.48-3.43-4.27-8.27-11.09-13.68-20.71-15.93-2.59.25-3.37-.76-3.32-3.21.18-8.32.09-16.65.07-25C135.6,38.46,132.58,34.3,125.86,31.7ZM40.33,73.25c-2.68-4.37-1.24-9.47,3.43-12,10.5-5.74,21.07-11.35,31.67-16.94a18.87,18.87,0,0,1,3.83-1.23c4.39.13,7.28,1.5,9.11,4.4C95,58,101.45,68.5,108.05,79c.74,1.19.56,1.77-.54,2.6a48.74,48.74,0,0,0-18,26.19c-.49,1.68-1.1,2-2.92,1.37a42.91,42.91,0,0,0-23-1.39,2.92,2.92,0,0,1-2.39-1Q50.68,90.08,40.33,73.25Zm55.09,32.13c-.08.18-.15.35-.22.53h0C95.27,105.73,95.34,105.56,95.42,105.38ZM49.87,140.52c-2,2-5.38,2.2-8.18.81s-3.78-3.54-3.24-6.63c.12-.25.23-.49.35-.73l.5-1,0,0c.49-2.45,2.51-3.34,4.76-3.7,2.77-.44,5.2.25,6.79,2.63l-.06,0,1,2.07C53.47,136.76,51.72,138.72,49.87,140.52Zm57.49,4.21c-3,1.33-6.06.68-6.83-1.43a33.8,33.8,0,0,0-9.34-13.44,39,39,0,0,0-12.94-7.52,21.71,21.71,0,0,1-2.39-1.25l-8-1.46,3.57,2.74.47.44.12.11.47.39a4.27,4.27,0,0,1,.54.18c4.58,3.53,7.52,8.11,9.77,13.14.62,1.38,0,1.54-1.2,1.12-1.73-.58-1.73.18-1.35,1.42A65.59,65.59,0,0,1,82,145.85c.14.78-.46,1.68-.71,2.53-.78-.57-2-1-2.26-1.74a34.44,34.44,0,0,0-11.71-16.29c-.31-.23-.43-.66-.64-1a8.35,8.35,0,0,1,1.8-.41,26,26,0,0,1,2.77.22,12.75,12.75,0,0,0-2.61-1.79c-1.91-.72-3.93-1.18-5.91-1.75l-4.43.44c-1.89.2-3.76.34-5-1.46l-1.5-.6,0,.06c-2.3,0-3.21-.55-1.54-2.73,4.76-6.2,11-10.13,19.28-10.35,10.65-.29,20.11,2.58,27.29,10.38a11.12,11.12,0,0,1,1.19,2l2.57,3.25c1.7,3,3.42,6,5.08,9.08a25,25,0,0,1,1.1,2.67l.41.6.32,2.06C108.25,142.3,109.63,143.73,107.36,144.73Zm23-31.69c-.45,2.41-.91,4.82-1.36,7.23L128,124l-.12,1c-.61,4.09-1.24,8.19-1.82,12.28a47,47,0,0,0-.49,4.74c-.08,1.71-.85,2.64-2.79,2.58-1,0-1.9,0-2.85,0-1.49.09-2.21-.39-2.37-1.89-.68-6.39-1.53-12.76-2.2-19.15-.26-2.53-.23-5.09-.33-7.63l0-2.64.24-1.1.61-3.7c1.17-5.67,3.38-10.85,8-14.88l1.68-1.64,2.93-2.57,0,0,1-.64.3-1.28-1.91.22-1.1.16C120.38,90.05,114.43,93,110,98.07c-2.26,2.55-4.2,5.35-6.28,8a.32.32,0,0,1-.18.34c-2.4,4.24-1.6,8,1.85,11.43a15.53,15.53,0,0,1,2,3.48l.27.53.31.53.33.54.21.56c.23.5.47,1,.7,1.52s.41,1,.62,1.47l1.14,3.31a.35.35,0,0,1,.1.32l2.69,9.18.27.63c0,.53.09,1.06.14,1.58,0,1,.07,1.93.1,2.89l-1.3-2.77-.47-1.06c-.12-.21-.24-.42-.35-.63L109,131.88c-.19-.44-.39-.87-.58-1.31l-.45-.71-1.3-2.45-.45-.73a.38.38,0,0,1-.14-.29l-.68-.88L98.19,116,97,114h0l-.56-.57h0c-3.39-2.77-3.45-3-1.39-6.18a.19.19,0,0,1,.12-.26l0-.93,0,.93c.23-.53.47-1.06.71-1.6h0l.63-1q2.56-4.55,5.12-9.09h0l.45-.54.72-1,.5-.58,0,0h0l3.49-3.66a1.75,1.75,0,0,1,.51,0c0-.18,0-.36,0-.54l.58-.55h0l1.69-1.07,1.13-1.14,1.54-1.08.14,0,.08.12,1.07-.65h-.07c12.19-9.18,33-11.44,42,9,.92,2.12,1.69,4.31,2.52,6.46l-.35,1.07a12.07,12.07,0,0,0-.37,1.25c2.24.78,1.49,2.6,1.65,4.07.45,4.07.44,4.07-4,3.61l-1.8.11-1.09.27c0,2.19-.64,4.18-3,4.92a5.65,5.65,0,0,1-6-1.35,4.85,4.85,0,0,1-.72-1.79c0-.07.09-.17.09-.25-.11-1.28-.8-2.94-.19-3.74s2.57-.38,3.84-.78c.6-.18,1-1,1.43-1.53-2.31-1.56-4.61-3.14-6.93-4.68a16.27,16.27,0,0,0-1.66-.86,9.28,9.28,0,0,1,2.08-.2c1.39.17,2.77.51,4.16.75.68.12,1.38.17,2.07.25-.19-.65-.35-1.32-.57-2a11,11,0,0,0-.56-1.21l-.48-.47-.6-.61v0c-.48-2-2.09-1.65-3.6-1.56l3.61,1.56h0l-3.61-1.56-.91-.09c-8.37.36-13.52,5-17.22,11.41-.36.62-.71,1.25-1.06,1.88-.4,1.72-.84,3.43-1.15,5.16-.08.45.24,1,.38,1.44a14.31,14.31,0,0,0,1.44-.64c2-1.12,4-2.27,6-3.41l2.15-.66C130.85,111.32,130.63,112.18,130.4,113Zm5,31.69c-2.54.55-3.11-.22-2.5-2.6,1.61-6.19,3.72-12.17,7.44-17.57a14.43,14.43,0,0,1,2-2c.23.82.47,1.63.68,2.46.09.34.14.69.2,1,.15,1,.7,2.2.4,3.11-1.52,4.59-3.35,9.09-4.88,13.68C138.17,144.64,137.44,145.54,135.4,144.73Zm15.76-7.65c-.92,2.06-1,4.48-1.27,6.76-.16,1.61-.8,2.27-2.1,2-7.56-1-6.49-.09-5.06-5.77.67-2.65,1.71-5.22,2.64-7.82.49-1.37,1.29-1.57,2.82-.9C151,132.57,152.62,133.82,151.16,137.08Zm9.57-10.38a7.67,7.67,0,0,1-7.84,1.85,6.71,6.71,0,0,1-5.39-5.84,12.18,12.18,0,0,1,.59-3.51l.45-.58,0,0c.09-.3.17-.6.26-.9l.46-.58c4.77-3.89,10-3.28,12.55,1.46l.49,1.13C163.76,122.45,162.57,124.77,160.73,126.7ZM208,134.56l.25.57c.34,3.93-2.36,6.9-6.45,7.1-4.4.2-7.3-2.34-7.46-6.54l.24-1.16c.65-3.45,3.19-5.44,6.88-5.37S207.46,131.25,208,134.56Zm-13.2-15.4a8.88,8.88,0,0,1,.76,1.09h0l.66,1.06-.09,0,.76.59c1.15.92,1.3,1.67-.41,2.11-.72.18-1.43.39-2.15.59-2.37.24-4.76.38-7.11.74-3.72.57-7.4,1.28-11.1,1.94l-1.87,1.83c.87-.06,1.75-.16,2.63-.18.71,0,1.42.07,2.14.11-.43.43-.88.84-1.28,1.28q-3.41,3.77-6.77,7.55l-.51.74a.35.35,0,0,1-.1.33c-.83,2.78-1.6,5.58-2.53,8.33-.17.51-1,.83-1.47,1.24-.39-.5-1.17-1.06-1.09-1.48.44-2.42,1.1-4.8,1.65-7.19a9.9,9.9,0,0,0,.11-1.64c-.43.32-.88.61-1.27,1s-.6.69-.94,1a5.51,5.51,0,0,1-.85.52,2.36,2.36,0,0,1-.06-.74c.56-2,1.16-4,1.74-6a.21.21,0,0,1,.06-.29c.18-.42.36-.84.53-1.27q2.33-3.66,4.63-7.32v0l.58-.59,0,0,.59-.58,0,0,.59-.57,0,0c.25-.28.51-.56.76-.85,1.07-.81,2.15-1.61,3.16-2.47.1-.08-.22-.59-.34-.9a57.82,57.82,0,0,0-5.77,1.19c-1.74.53-2.8.57-3-1.5a11.4,11.4,0,0,0-1-2.72l-1-1.2c-.84-1-1.68-2-2.53-3,1.28-.18,2.56-.39,3.84-.53C177.21,110.17,187.17,111,194.77,119.16Z"/><path class="a" d="M200.66,205.22a2,2,0,0,1-.83-.18,174.6,174.6,0,0,0-143.66,0,2,2,0,0,1-.82.18,2,2,0,0,1-1.09-.32,2,2,0,0,1-.92-1.69V162.15a2,2,0,0,1,1.18-1.82,178.56,178.56,0,0,1,147,0,2,2,0,0,1,1.18,1.82v41.06a2,2,0,0,1-2,2Z"/><path class="ac" d="M202.3,158.5a182.52,182.52,0,0,0-25.9-9.4,12.53,12.53,0,0,1,.43,3.27c0,.35,0,.69-.05,1a176.61,176.61,0,0,1,23.87,8.75v41.06a176.55,176.55,0,0,0-145.3,0V162.15c5-2.25,11-4.59,16.17-6.36-.37-1.18-1.17-2.11-1.53-3.42a.93.93,0,0,1,0-.29q-8.25,2.8-16.3,6.42a4,4,0,0,0-2.36,3.65v41.06a4,4,0,0,0,4,4,4.06,4.06,0,0,0,1.64-.35,172.54,172.54,0,0,1,142,0,4.06,4.06,0,0,0,1.64.35,4,4,0,0,0,4-4V162.15A4,4,0,0,0,202.3,158.5Z"/><path class="ad" d="M86.88,161.86a4,4,0,0,0-2.2-2.29,6.32,6.32,0,0,0-2.55-.46,15,15,0,0,0-1.57.1,33.7,33.7,0,0,0-6.89,1.87c-3.55,1.31-7.09,2.76-10.54,4.31a1.14,1.14,0,0,0-.67,1V194a1.13,1.13,0,0,0,.52,1,1.1,1.1,0,0,0,.62.19,1.28,1.28,0,0,0,.47-.1c3.37-1.53,6.84-2.94,10.31-4.22a1.15,1.15,0,0,0,.75-1.07V179.47l2.06-.73A30.34,30.34,0,0,0,83,176.16,9,9,0,0,0,86.41,173a9.21,9.21,0,0,0,1-4.64V166A12.47,12.47,0,0,0,86.88,161.86ZM76.19,168v2.26a2.41,2.41,0,0,1-.3,1.49,2.32,2.32,0,0,1-.76.53v-4.54a6.94,6.94,0,0,1,1-.25A3.13,3.13,0,0,1,76.19,168Z"/><path class="ae" d="M115,158.47a6,6,0,0,0-2.38-3.66,10,10,0,0,0-4.88-1.89,17.26,17.26,0,0,0-2.42-.16,25.16,25.16,0,0,0-10.5,2.42,14.64,14.64,0,0,0-4.55,3.43,8.68,8.68,0,0,0-2.1,4.18,42.16,42.16,0,0,0-.31,6.15v4.72a37.83,37.83,0,0,0,.33,6.11,5.17,5.17,0,0,0,2.41,3.42,9.75,9.75,0,0,0,4.84,1.39c.38,0,.79,0,1.2,0a30.34,30.34,0,0,0,5.08-.48,29.3,29.3,0,0,0,6.48-1.78,13.87,13.87,0,0,0,4.62-2.94,7.44,7.44,0,0,0,2.2-4,41.24,41.24,0,0,0,.31-6.11v-4.72A38.69,38.69,0,0,0,115,158.47Zm-12.91,3.16v12.68a8.78,8.78,0,0,1-.21,2.68s-.15.15-.57.22l-.23,0a14.09,14.09,0,0,1-.11-2.13V162.22a5.65,5.65,0,0,1,.19-1.92,1.15,1.15,0,0,1,.62-.27l.21,0A8.65,8.65,0,0,1,102.09,161.63Z"/><path class="af" d="M146.16,180.65c-2.19-5-4.43-10.17-6.68-15.24,2-3.81,4-7.65,6-11.43a1.13,1.13,0,0,0,0-1.07,1.17,1.17,0,0,0-.89-.61c-3.44-.36-6.93-.61-10.39-.75h0a1.16,1.16,0,0,0-1,.66q-1.35,2.89-2.72,5.87v-5.5a1.15,1.15,0,0,0-1.14-1.15H128c-3.25,0-6.54.1-9.79.3a1.15,1.15,0,0,0-1.07,1.14v27.6a1.12,1.12,0,0,0,.36.83,1.14,1.14,0,0,0,.79.31h.07c3.19-.2,6.44-.3,9.64-.3h1.29a1.14,1.14,0,0,0,1.15-1.15v-5.51l2.24,6a1.15,1.15,0,0,0,1,.75c3.75.14,7.54.41,11.27.82h.13a1.14,1.14,0,0,0,1-1.6Z"/><path class="ag" d="M166.12,178.18c-2.33-.58-4.71-1.12-7.07-1.59v-3.73c1.79.36,3.58.76,5.35,1.18a.84.84,0,0,0,.27,0,1.16,1.16,0,0,0,1.14-1.15v-5.25a1.13,1.13,0,0,0-.88-1.11c-1.94-.47-3.91-.91-5.88-1.3v-2.9c1.94.4,3.89.83,5.8,1.3a1.33,1.33,0,0,0,.28,0,1.12,1.12,0,0,0,.7-.24,1.14,1.14,0,0,0,.44-.9V157a1.16,1.16,0,0,0-.87-1.12,159.24,159.24,0,0,0-18.26-3.33H147a1.13,1.13,0,0,0-.76.29,1.14,1.14,0,0,0-.39.86v27.6a1.14,1.14,0,0,0,1,1.13,156.31,156.31,0,0,1,18.71,3.46.84.84,0,0,0,.27,0,1.16,1.16,0,0,0,1.15-1.15v-5.52A1.14,1.14,0,0,0,166.12,178.18Z"/><path class="ah" d="M191.74,179.64c-.16-.2-.35-.41-.55-.62a2.32,2.32,0,0,0,.59-.22c1.58-.82,1.76-3.15,1.76-4.83a11.19,11.19,0,0,0-1.83-6.52,13.68,13.68,0,0,0-4.61-4.13,63.55,63.55,0,0,0-10.27-4.14c-2.5-.82-5.06-1.58-7.6-2.27a1,1,0,0,0-.3,0,1.14,1.14,0,0,0-1.14,1.15v27.6a1.14,1.14,0,0,0,.84,1.1c3.54,1,7.09,2.06,10.56,3.27a1.19,1.19,0,0,0,.37.06,1.16,1.16,0,0,0,.67-.21,1.14,1.14,0,0,0,.48-.93V178.19a2,2,0,0,1,.61.43,4.8,4.8,0,0,1,.3,2.27v9.17a1.13,1.13,0,0,0,.74,1.07c3.22,1.21,6.43,2.53,9.57,4a1.28,1.28,0,0,0,.47.1A1.1,1.1,0,0,0,193,195a1.15,1.15,0,0,0,.52-1v-7.28a17.66,17.66,0,0,0-.3-4.52A8.5,8.5,0,0,0,191.74,179.64Zm-10.12-10.32v1.51a3.89,3.89,0,0,1-.05.72,6.32,6.32,0,0,1-.86-.21v-3.57a2.58,2.58,0,0,1,.57.39A1.62,1.62,0,0,1,181.62,169.32Z"/><path class="aa" d="M89.4,213.05v.28a7.23,7.23,0,0,0-1.34.15,3,3,0,0,0-.93.39,2,2,0,0,0-.83,1,5.39,5.39,0,0,0-.23,1.86v10.59a7.45,7.45,0,0,1-.32,2.47,3.19,3.19,0,0,1-1.15,1.48,6.91,6.91,0,0,1-2.26,1,11.38,11.38,0,0,1-2.91.37,10.92,10.92,0,0,1-1.73-.14,5.45,5.45,0,0,1-1.34-.38c-.62-.29-.93-.66-.93-1.14a.85.85,0,0,1,.36-.7,1.55,1.55,0,0,1,.95-.27,1.58,1.58,0,0,1,1,.28,1.62,1.62,0,0,1,.34.35c.09.14.23.4.42.77a1.85,1.85,0,0,0,.63.73,1.91,1.91,0,0,0,1,.22,2.38,2.38,0,0,0,1.32-.37,2.33,2.33,0,0,0,.87-1.07,11.43,11.43,0,0,0,.39-3.69V216.71a6.32,6.32,0,0,0-.14-1.36,2,2,0,0,0-.76-1.2,4.28,4.28,0,0,0-2.5-.82v-.28Z"/><path class="aa" d="M90.67,221.26a6.51,6.51,0,0,1,1.14-3.7,9.59,9.59,0,0,1,3.32-3,14.34,14.34,0,0,1,3.51-1.45,14.83,14.83,0,0,1,3.79-.5,14.17,14.17,0,0,1,4.71.8,12.4,12.4,0,0,1,4,2.26,7,7,0,0,1,2.78,5.4,6.26,6.26,0,0,1-.73,2.93,8.45,8.45,0,0,1-2.11,2.58,12.42,12.42,0,0,1-4,2.24,15,15,0,0,1-4.87.8,14.83,14.83,0,0,1-4.81-.78,11.71,11.71,0,0,1-4-2.18,7.75,7.75,0,0,1-2-2.51A6.44,6.44,0,0,1,90.67,221.26Zm3.82.17a7.71,7.71,0,0,0,2.5,5.81,7.31,7.31,0,0,0,2.38,1.53,9.15,9.15,0,0,0,5.82,0,7.36,7.36,0,0,0,2.4-1.54,7.79,7.79,0,0,0,2.49-5.85,9.55,9.55,0,0,0-.68-3.62,8.22,8.22,0,0,0-1.94-2.89,6.43,6.43,0,0,0-2.25-1.42,8.92,8.92,0,0,0-2.94-.44,8.71,8.71,0,0,0-2.9.44,6.4,6.4,0,0,0-2.27,1.42,8.11,8.11,0,0,0-1.93,2.89A9.88,9.88,0,0,0,94.49,221.43Z"/><path class="aa" d="M122.16,221l6.69-5a12.06,12.06,0,0,0,1.24-1,.84.84,0,0,0,.25-.59c0-.39-.26-.68-.76-.88a5.63,5.63,0,0,0-1.33-.21v-.28h6.82v.28a6.38,6.38,0,0,0-1.17.17,4.6,4.6,0,0,0-1,.42,24.38,24.38,0,0,0-2.12,1.41L125.64,219l7.29,7,.9.87a8.76,8.76,0,0,0,2.07,1.45,7,7,0,0,0,1.14.45,7.71,7.71,0,0,0,1.24.21v.27H127.82V229a5.61,5.61,0,0,0,1.71-.3.71.71,0,0,0,.52-.66,2,2,0,0,0-.65-1.21c-.21-.24-.6-.65-1.18-1.23s-1.07-1.06-1.47-1.43l-3.56-3.31-1,.76v3.93a6.66,6.66,0,0,0,.18,1.8,1.88,1.88,0,0,0,.68,1,2.74,2.74,0,0,0,1,.49,6.15,6.15,0,0,0,1.48.2v.27h-10.1V229a6.15,6.15,0,0,0,1.48-.2,2.87,2.87,0,0,0,1-.49,1.88,1.88,0,0,0,.68-1,7.13,7.13,0,0,0,.17-1.8v-8.74a7,7,0,0,0-.17-1.8,1.94,1.94,0,0,0-.68-1,2.83,2.83,0,0,0-1-.49,6.19,6.19,0,0,0-1.47-.19v-.28h10.1v.28a6,6,0,0,0-1.46.19,2.92,2.92,0,0,0-1,.49,1.94,1.94,0,0,0-.68,1,6.61,6.61,0,0,0-.18,1.8Z"/><path class="aa" d="M154.5,213.05l.26,3.92h-.36a4.28,4.28,0,0,0-.68-1.65,4.19,4.19,0,0,0-1.37-1.15,5.61,5.61,0,0,0-1.76-.59,17.29,17.29,0,0,0-2.69-.17h-3.62v7.12h.95a11.66,11.66,0,0,0,2.17-.15,2.66,2.66,0,0,0,1.18-.5,2.07,2.07,0,0,0,.66-.82,5.43,5.43,0,0,0,.35-1.38H150l-.07,6.36h-.36a4.79,4.79,0,0,0-.42-1.47,2.72,2.72,0,0,0-.77-1,3,3,0,0,0-1.23-.56,8.62,8.62,0,0,0-1.93-.17h-.9v2.71a18.76,18.76,0,0,0,.11,2.37,3.19,3.19,0,0,0,.43,1.24,3.1,3.1,0,0,0,1.64,1.25,8.79,8.79,0,0,0,2.9.4,11.84,11.84,0,0,0,3.17-.37,4.88,4.88,0,0,0,2.09-1.12,4.32,4.32,0,0,0,.93-1.16,8.8,8.8,0,0,0,.65-1.72h.37l-.21,4.72H137.5V229a6.57,6.57,0,0,0,1.46-.19,2.77,2.77,0,0,0,1-.5,1.94,1.94,0,0,0,.68-1,6.66,6.66,0,0,0,.18-1.8v-8.74a6.61,6.61,0,0,0-.18-1.8,2,2,0,0,0-.68-1,2.74,2.74,0,0,0-1-.49,6.21,6.21,0,0,0-1.48-.19v-.28Z"/><path class="aa" d="M163.65,221.32v4.2a6.66,6.66,0,0,0,.18,1.8,1.86,1.86,0,0,0,.67,1,2.87,2.87,0,0,0,1,.49,6.07,6.07,0,0,0,1.48.2v.27H156.86V229a6,6,0,0,0,1.48-.2,2.7,2.7,0,0,0,1-.49,1.82,1.82,0,0,0,.68-1,6.61,6.61,0,0,0,.18-1.8v-8.74A6.51,6.51,0,0,0,160,215a1.88,1.88,0,0,0-.68-1,2.78,2.78,0,0,0-1-.49,6.28,6.28,0,0,0-1.48-.19v-.28h7.63c1.27,0,2.11,0,2.51,0a16,16,0,0,1,3.84.49,5.25,5.25,0,0,1,2.43,1.42,3.17,3.17,0,0,1,.86,2.19,3.35,3.35,0,0,1-1.86,3,5.52,5.52,0,0,1-1.26.55,13.66,13.66,0,0,1-1.84.4,5.39,5.39,0,0,1,1.4.62,3,3,0,0,1,.67.62q.3.38.9,1.32,1.41,2.18,2.13,3.18a9.55,9.55,0,0,0,1.21,1.45,2.53,2.53,0,0,0,.76.51,3.5,3.5,0,0,0,1,.19v.27H172l-.5-.83-1.11-1.88a26.92,26.92,0,0,0-2-3,6.74,6.74,0,0,0-1.85-1.77,3.17,3.17,0,0,0-.92-.34,5.78,5.78,0,0,0-1.2-.1Zm0-.26h.6a16.48,16.48,0,0,0,2.81-.17,4.17,4.17,0,0,0,1.58-.68,3.52,3.52,0,0,0,1.66-3,3.45,3.45,0,0,0-.48-1.76,3.82,3.82,0,0,0-1.33-1.35,4.62,4.62,0,0,0-1.58-.57,15.94,15.94,0,0,0-2.61-.16h-.65Z"/><polygon class="aa" points="66.14 213.86 68.48 218.61 73.72 219.37 69.93 223.07 70.82 228.29 66.14 225.82 61.45 228.29 62.34 223.07 58.55 219.37 63.79 218.61 66.14 213.86"/><polygon class="aa" points="189.86 213.86 192.21 218.61 197.45 219.37 193.65 223.07 194.54 228.29 189.86 225.82 185.18 228.29 186.07 223.07 182.28 219.37 187.52 218.61 189.86 213.86"/><path class="aa" d="M178.63,235.31a.56.56,0,0,1-.56.57h-100a.56.56,0,0,1-.57-.57.57.57,0,0,1,.57-.57h100a.57.57,0,0,1,.56.57Z"/><circle class="g" cx="79.75" cy="153.08" r="2.56"/><circle class="n" cx="92.68" cy="150.66" r="2.56"/><circle class="f" cx="106.7" cy="148.44" r="2.56"/><circle class="l" cx="122.24" cy="147.78" r="2.56"/><circle class="o" cx="139.93" cy="148.07" r="2.56"/><circle class="k" cx="154.01" cy="149.85" r="2.56"/><circle class="j" cx="166.97" cy="152.24" r="2.56"/></svg>